<svg width="49" height="73" fill="none" xmlns="http://www.w3.org/2000/svg"><path fill-rule="evenodd" clip-rule="evenodd" d="M24.582 22.934c-.415-1.173-.955-1.973-1.619-2.4-.47.427-.664.92-.58 1.48.082.347.234.8.456 1.36 2.297 6.8 5.574 15.253 9.835 25.36.581 1.333 1.231 2.253 1.95 2.76v-.76c-.027-.32-.082-.573-.165-.76-.609-1.12-1.204-2.494-1.785-4.12a513.85 513.85 0 00-1.328-4.28c-.608-1.814-1.77-4.907-3.486-9.28-1.521-3.947-2.613-7.067-3.278-9.36zm2.574 4c.775 2.32 1.383 3.986 1.826 5 1.134 2.853 2.766 7.186 4.897 13 .664 1.813 1.84 4.466 3.527 7.96.415.906 1.162 1.493 2.241 1.76 1.052.24 1.757.853 2.117 1.84.332.96.207 1.933-.374 2.92-.664 1.093-.996 1.813-.996 2.16 0 .32.388.973 1.162 1.96l.706.84c.747 1.066 1.106 1.88 1.079 2.44-.083.533-.609 1.24-1.577 2.12-1.3 1.066-2.172.92-2.615-.44-.36-1.227-1.065-2.694-2.116-4.4-1.3-2.134-2.103-3.547-2.407-4.24-.443-.8-.9-1.2-1.37-1.2-.58 0-1.895-.24-3.942-.72-1.633-.373-2.974-.427-4.026-.16-.691.133-1.176.253-1.452.36a2.32 2.32 0 00-1.162.88c-.94 1.253-2.103 1.453-3.486.6-.692-.4-1.688-.587-2.988-.56-1.494 0-2.518-.094-3.071-.28-.194-.08-.595-.134-1.204-.16-.553-.08-.968-.214-1.245-.4-.36-.267-.691-.294-.996-.08-1.41.8-2.448 1.453-3.112 1.96-1.107.826-1.799 1.8-2.075 2.92l-1.245 5.8c-.139.826-.139 1.32 0 1.48.166.16.664.2 1.494.12l8.715-.36c1.051-.08 1.826.173 2.324.76-1.024.186-2.338.333-3.943.44-2.075.16-3.361.253-3.86.28-.165.053-1.189.106-3.07.16-1.245.053-2.269.213-3.071.48-.637.133-1.065.013-1.287-.36-.166-.187-.166-.374 0-.56.083-.107.222-.294.415-.56.664-1.28 1.135-2.774 1.411-4.48.194-.907.388-2.453.581-4.64.056-.267-.027-.534-.249-.8a3.942 3.942 0 01-.456-.64c-1.577-2.507-.982-4.494 1.784-5.96a1.26 1.26 0 00.623-.68c.083-.374.166-.654.249-.84l2.365-9.52c.387-1.627 1.052-3.827 1.992-6.6 1.107-3.147 1.826-5.347 2.158-6.6a32.66 32.66 0 011.37-4.12c.47-1.147.72-2.094.747-2.84.055-.987-.222-1.974-.83-2.96-.886-1.494-1.218-3.027-.996-4.6.249-1.547 1.037-2.92 2.365-4.12a6.351 6.351 0 001.868-3.24c.138-.454.304-1.667.498-3.64 0-.64.014-1.107.041-1.4a1.89 1.89 0 01.83-1.24C18.98.627 20.723.107 22.55.214c.746.08 1.01.573.788 1.48l-.955 5.32c-.193.8-.235 1.373-.124 1.72.193.533.705.933 1.535 1.2 1.135.4 1.922 1.28 2.366 2.64.415 1.386.249 2.56-.498 3.52-1.245 1.76-1.37 3.706-.374 5.84.498 1.173 1.12 2.84 1.868 5zm19.297 28.76c.25 1.334.097 2.667-.456 4-.332.747-.733 1.014-1.204.8-.221-.08-.332-.24-.332-.48 0-.106.042-.346.125-.72.221-.613.373-1.066.456-1.36.166-.533.208-1.026.125-1.48-.332-1.466-1.314-2.6-2.947-3.4 1.411-.16 2.435-.053 3.071.32.581.373.968 1.147 1.162 2.32zm-8.549-11.48c.139.693.305 1.747.498 3.16.222 1.253.554 2.293.996 3.12.36.64.235 1.093-.373 1.36-.332.106-.581.066-.747-.12-.11-.107-.235-.334-.374-.68-.968-3.52-1.494-6.24-1.577-8.16l-.166-1.64c-.083-.507.11-.734.581-.68.387.106.581.253.581.44l.581 3.2zm-11.578-7.16c-1.3-3.6-2.283-6.307-2.947-8.12-.775-2.266-1.398-3.946-1.867-5.04-.277-.613-.498-1.013-.664-1.2-.305-.426-.72-.613-1.245-.56-.415.028-.761.254-1.038.68-.083.134-.235.507-.456 1.12l-.789 1.76-7.013 21.44c-.776 2.534-1.176 4.294-1.204 5.28-.083.88-.346 1.654-.788 2.32-.388.72-.484 1.254-.29 1.6.165.374.663.587 1.493.64l6.1.48c1.522.24 2.463-.307 2.823-1.64.304-1.12.996-1.413 2.075-.88.11.054.415.12.913.2.442.054.747.174.913.36.691.8 1.798 1.067 3.32.8 2.213-.426 4.69-.266 7.428.48.581.08.969.014 1.162-.2.166-.266.11-.653-.166-1.16-.774-1.28-1.59-3-2.448-5.16a649.355 649.355 0 00-2.117-5.28c-.997-2.133-2.062-4.773-3.195-7.92zm8.341 14.56c.055 1.547.609 2.68 1.66 3.4-.028-1.2-.58-2.333-1.66-3.4zm2.49 6.08c-.443.053-.72.2-.83.44-.028.214-.069.507-.124.88.083 1.44.622 2 1.618 1.68.526-.133 1.107-.68 1.743-1.64.637-.907.927-1.627.872-2.16-.055-.56-.318-.893-.789-1-.47-.08-.775.067-.913.44-.221.88-.747 1.333-1.577 1.36zm1.868 7.32c.332.64.968 1.466 1.909 2.48.58-2.027-.152-3.774-2.2-5.24-.221.933-.124 1.853.29 2.76zm9.13.56c.054.134.014.253-.125.36-.083.134-.193.187-.332.16-1.023-.213-1.853-.947-2.49-2.2l.374-.24c1.494.187 2.351.827 2.573 1.92zM18.399 3.895c-.415 1.84-.636 2.907-.664 3.2-.11 1.067-.014 1.707.29 1.92.305.24.97.148 1.993-.28.608-.24.968-.6 1.079-1.08l.622-3.4c.055-.64.083-1.093.083-1.36-.055-.506-.373-.813-.954-.92-1.052-.213-1.812.267-2.283 1.44l-.166.48zm-6.267.92c.36.08.58.213.664.4.276.426.29 1.026.041 1.8l.125 1.04c0 .293-.194.44-.581.44-.388-.08-.608-.174-.664-.28-.305-.72-.305-1.774 0-3.16.138-.24.277-.32.415-.24zm2.325 11.08c-.443.534-.54 1.187-.29 1.96a95.183 95.183 0 002.987-2.08c1.162-.747 2.2-1.293 3.113-1.64l-4.067 3.72c-.498.507-.595.893-.29 1.16.248.267.663.24 1.244-.08.083-.026.761-.493 2.034-1.4.913-.613 1.757-1.093 2.531-1.44-.387.64-1.106 1.387-2.158 2.24-1.023.828-1.715 1.52-2.075 2.08.913 0 1.453-.013 1.619-.04 1.134-.32 2.31-1.186 3.527-2.6 1.162-1.44 1.785-2.747 1.868-3.92.055-.853-.36-1.64-1.245-2.36-.858-.666-2.172-.92-3.943-.76-1.715.107-2.988.56-3.818 1.36a6.595 6.595 0 00-.54.56c-.11.267-.04.547.208.84.332 0 .858-.226 1.577-.68.692-.452 1.342-.64 1.95-.56-1.605 1.36-2.545 2.187-2.821 2.48-.664.507-1.135.893-1.411 1.16zm-7.802 15.2c.415-2.24 1.162-3.96 2.24-5.16.056.72-.096 1.707-.456 2.96-.36 1.12-.484 1.987-.373 2.6.055.187-.014.334-.208.44a.772.772 0 01-.54.12c-.581-.027-.802-.347-.663-.96zm10.333-7.68c.139-.56-.041-.92-.54-1.08-.442-.134-.802.08-1.078.64l-.457.96c-1.383 3.866-2.13 6.027-2.24 6.48-.388 1.44-1.329 4.6-2.823 9.48-1.217 3.92-2.102 7.106-2.656 9.56.47.08.803-.107.996-.56 1.494-4.347 2.643-7.6 3.445-9.76 1.216-3.2 2.877-8.094 4.98-14.68l.373-1.04zm-9.503-2.48c-.498-.347-.844-1.014-1.038-2-.47-2.027-.318-3.76.457-5.2.83-1.494 2.2-2.467 4.108-2.92-3.984 3.333-4.426 6.813-1.328 10.44-.996.16-1.73.053-2.2-.32zm10.5 13.84c.304.427.373.88.207 1.36-.056.267-.222.64-.498 1.12-.554 1.307-1.37 3.24-2.449 5.8-.885 2.24-1.563 4.187-2.033 5.84a1.79 1.79 0 01-.374.76c-.11.187-.207.32-.29.4-.139.134-.318.147-.54.04-.58-.266-.705-.64-.373-1.12.386-.693.774-1.6 1.162-2.72.58-1.786.899-2.72.954-2.8l2.905-7.04c.083-.186.222-.506.415-.96a1.53 1.53 0 01.913-.68zm-7.139 19.08c.305.053.443.214.415.48-.027.348-.276.52-.747.52-.36-.08-.498-.227-.415-.44.11-.373.36-.56.747-.56zm-3.86-2.84c-.138.64-.027 1.186.333 1.64a4.468 4.468 0 00-.125-3c0 .267-.07.72-.207 1.36zm-3.57 6.64c.056.267.167.68.333 1.24.193.4.58.587 1.162.56.553-.027.982-.293 1.286-.8a2.72 2.72 0 00.457-1.8c0-.56-.29-.84-.872-.84-.691 0-1.259.148-1.701.44-.442.293-.664.693-.664 1.2zm17.1-1.36c-.277-.16-.512-.16-.706 0-.166.134-.235.32-.207.56.138.667.221 1.04.249 1.12.166.427.498.653.996.68.747.053 1.259-.36 1.535-1.24-.027-.452-.262-.76-.705-.92-.554-.027-.942-.093-1.162-.2zm.041 14.52a35.097 35.097 0 013.362-.16c.553 0 .83.186.83.56.083.533-.18.826-.789.88l-1.909.08-1.41-.12c-.526-.08-.734-.32-.623-.72.083-.347.262-.52.54-.52z" fill="#000"/><path fill-rule="evenodd" clip-rule="evenodd" d="M46.453 55.694c.25 1.334.097 2.667-.456 4-.332.747-.733 1.014-1.204.8-.221-.08-.332-.24-.332-.48 0-.106.042-.346.125-.72.221-.613.373-1.066.456-1.36.166-.533.208-1.026.125-1.48-.332-1.466-1.314-2.6-2.947-3.4 1.411-.16 2.436-.053 3.071.32.581.373.968 1.147 1.162 2.32zm-8.549-11.48c.139.693.305 1.747.498 3.16.222 1.252.554 2.293.996 3.12.36.64.235 1.093-.373 1.36-.332.106-.581.066-.747-.12-.11-.107-.235-.334-.374-.68-.968-3.52-1.494-6.24-1.577-8.16l-.166-1.64c-.083-.508.11-.734.581-.68.387.106.581.253.581.44l.581 3.2zm10.25 21.36c.055.134.015.253-.124.36-.083.134-.193.187-.332.16-1.023-.213-1.853-.947-2.49-2.2l.374-.24c1.494.187 2.351.827 2.573 1.92zM12.133 4.815c.36.08.58.213.664.4.276.426.29 1.026.041 1.8l.125 1.04c0 .292-.194.44-.581.44-.388-.08-.608-.174-.664-.28-.305-.72-.305-1.774 0-3.16.138-.24.277-.32.415-.24zm-5.477 26.28c.415-2.24 1.162-3.96 2.24-5.16.056.72-.096 1.707-.456 2.96-.36 1.12-.484 1.987-.373 2.6.055.187-.014.334-.208.44a.772.772 0 01-.54.12c-.581-.027-.802-.347-.663-.96zm.83-10.16c-.498-.347-.844-1.014-1.038-2-.47-2.027-.318-3.76.457-5.2.83-1.494 2.2-2.467 4.108-2.92-3.984 3.333-4.426 6.813-1.328 10.44-.996.16-1.73.053-2.2-.32zm13.072 49.88a35.097 35.097 0 013.362-.16c.553 0 .83.186.83.56.083.533-.18.826-.789.88l-1.909.08-1.41-.12c-.526-.08-.734-.32-.623-.72.083-.347.262-.52.54-.52z" fill="#95564E"/></svg>