<svg width="64" height="65" fill="none" xmlns="http://www.w3.org/2000/svg"><path d="M58.212 17.833c-4-6.4-18 1-24.5 5.5 14.5-6 17-2 17 1.5s-14.5 24.5-41.5 28.5c27.5 5 55-31.5 49-35.5z" fill="url(#a)"/><path d="M54.212 54.833c-20 17.6-38.334 6.333-45-1.5 26.225 4.768 52.45-28.205 49.621-34.742-.245-.378-.458-.636-.621-.758a1.7 1.7 0 01.621.758c2.763 4.255 9.614 23.715-4.621 36.242z" fill="url(#b)"/><path d="M9.212 53.333c27.5 5 55-31.5 49-35.5" stroke="#C48A74" stroke-width=".2"/><path d="M6.95 48.82c4.202 6.536 18.909-1.021 25.737-5.617-15.232 6.128-17.859 2.043-17.859-1.532 0-3.574 15.233-25.02 43.596-29.105C29.535 7.46.646 44.736 6.95 48.82z" fill="url(#c)"/><path d="M11.152 11.034c21.01-17.973 40.269-6.467 47.272 1.532-27.55-4.87-55.1 28.804-52.128 35.48.258.386.482.65.653.774a1.747 1.747 0 01-.653-.774C3.395 43.7-3.803 23.827 11.152 11.034z" fill="url(#d)"/><path d="M58.424 12.566C29.535 7.46.646 44.736 6.95 48.82" stroke="#C48A74" stroke-width=".2"/><defs><linearGradient id="a" x1="102.16" y1="25.47" x2="17.257" y2="35.864" gradientUnits="userSpaceOnUse"><stop stop-color="#A6604B"/><stop offset=".028" stop-color="#C48568"/><stop offset=".056" stop-color="#DCA27F"/><stop offset=".084" stop-color="#ECB690"/><stop offset=".112" stop-color="#F7C39A"/><stop offset=".138" stop-color="#FAC79D"/><stop offset=".15" stop-color="#F7C399"/><stop offset=".243" stop-color="#E6A682"/><stop offset=".335" stop-color="#DA9171"/><stop offset=".425" stop-color="#D28466"/><stop offset=".511" stop-color="#D08063"/><stop offset=".588" stop-color="#D38467"/><stop offset=".671" stop-color="#DA9171"/><stop offset=".757" stop-color="#E7A783"/><stop offset=".844" stop-color="#F8C49B"/><stop offset=".851" stop-color="#FAC79D"/><stop offset=".878" stop-color="#F6C299"/><stop offset=".908" stop-color="#EBB58F"/><stop offset=".94" stop-color="#D99F7D"/><stop offset=".973" stop-color="#C08064"/><stop offset="1" stop-color="#A6604B"/></linearGradient><linearGradient id="b" x1="109.396" y1="30.04" x2="17.613" y2="40.094" gradientUnits="userSpaceOnUse"><stop stop-color="#A6604B"/><stop offset=".028" stop-color="#C48568"/><stop offset=".056" stop-color="#DCA27F"/><stop offset=".084" stop-color="#ECB690"/><stop offset=".112" stop-color="#F7C39A"/><stop offset=".138" stop-color="#FAC79D"/><stop offset=".15" stop-color="#F7C399"/><stop offset=".243" stop-color="#E6A682"/><stop offset=".335" stop-color="#DA9171"/><stop offset=".425" stop-color="#D28466"/><stop offset=".511" stop-color="#D08063"/><stop offset=".588" stop-color="#D38467"/><stop offset=".671" stop-color="#DA9171"/><stop offset=".757" stop-color="#E7A783"/><stop offset=".844" stop-color="#F8C49B"/><stop offset=".851" stop-color="#FAC79D"/><stop offset=".878" stop-color="#F6C299"/><stop offset=".908" stop-color="#EBB58F"/><stop offset=".94" stop-color="#D99F7D"/><stop offset=".973" stop-color="#C08064"/><stop offset="1" stop-color="#A6604B"/></linearGradient><linearGradient id="c" x1="-39.218" y1="41.021" x2="49.896" y2="29.799" gradientUnits="userSpaceOnUse"><stop stop-color="#A6604B"/><stop offset=".028" stop-color="#C48568"/><stop offset=".056" stop-color="#DCA27F"/><stop offset=".084" stop-color="#ECB690"/><stop offset=".112" stop-color="#F7C39A"/><stop offset=".138" stop-color="#FAC79D"/><stop offset=".15" stop-color="#F7C399"/><stop offset=".243" stop-color="#E6A682"/><stop offset=".335" stop-color="#DA9171"/><stop offset=".425" stop-color="#D28466"/><stop offset=".511" stop-color="#D08063"/><stop offset=".588" stop-color="#D38467"/><stop offset=".671" stop-color="#DA9171"/><stop offset=".757" stop-color="#E7A783"/><stop offset=".844" stop-color="#F8C49B"/><stop offset=".851" stop-color="#FAC79D"/><stop offset=".878" stop-color="#F6C299"/><stop offset=".908" stop-color="#EBB58F"/><stop offset=".94" stop-color="#D99F7D"/><stop offset=".973" stop-color="#C08064"/><stop offset="1" stop-color="#A6604B"/></linearGradient><linearGradient id="d" x1="-46.82" y1="36.354" x2="49.532" y2="25.497" gradientUnits="userSpaceOnUse"><stop stop-color="#A6604B"/><stop offset=".028" stop-color="#C48568"/><stop offset=".056" stop-color="#DCA27F"/><stop offset=".084" stop-color="#ECB690"/><stop offset=".112" stop-color="#F7C39A"/><stop offset=".138" stop-color="#FAC79D"/><stop offset=".15" stop-color="#F7C399"/><stop offset=".243" stop-color="#E6A682"/><stop offset=".335" stop-color="#DA9171"/><stop offset=".425" stop-color="#D28466"/><stop offset=".511" stop-color="#D08063"/><stop offset=".588" stop-color="#D38467"/><stop offset=".671" stop-color="#DA9171"/><stop offset=".757" stop-color="#E7A783"/><stop offset=".844" stop-color="#F8C49B"/><stop offset=".851" stop-color="#FAC79D"/><stop offset=".878" stop-color="#F6C299"/><stop offset=".908" stop-color="#EBB58F"/><stop offset=".94" stop-color="#D99F7D"/><stop offset=".973" stop-color="#C08064"/><stop offset="1" stop-color="#A6604B"/></linearGradient></defs></svg>