<svg width="30" height="30" fill="none" xmlns="http://www.w3.org/2000/svg"><g clip-path="url(#clip0_339_2407)" fill="#F7F4F3"><path d="M10.472 15c-4.552-4.717-7.2-9.8-8.187-13.807-.225-.939.692-1.626 1.177-.87C7.373 6.39 13.5 7.5 15.387 13.374c.485.367.483 2.886 0 3.252C12 21.75 7.373 23.609 3.462 29.677c-.485.756-1.402.069-1.177-.87C3.27 24.8 5.92 19.717 10.472 15z"/><path d="M18.778 15c4.552-4.717 7.2-9.8 8.187-13.807.225-.939-.692-1.626-1.177-.87C21.876 6.39 15.75 7.5 13.863 13.374c-.485.367-.483 2.886 0 3.252 3.387 5.124 8.014 6.983 11.925 13.051.485.756 1.402.069 1.177-.87C25.98 24.8 23.33 19.717 18.778 15z"/></g><defs><clipPath id="clip0_339_2407"><path fill="#fff" d="M0 0h30v30H0z"/></clipPath></defs></svg>