<svg width="11" height="30" fill="none" xmlns="http://www.w3.org/2000/svg"><path fill-rule="evenodd" clip-rule="evenodd" d="M5.642 0c2.658 0 4.814 2.056 4.814 4.592 0 2.536-2.156 4.593-4.814 4.593-2.659 0-4.814-2.057-4.814-4.593S2.983 0 5.642 0zm0 2.517c1.202 0 2.176.929 2.176 2.075 0 1.147-.974 2.076-2.176 2.076-1.202 0-2.176-.93-2.176-2.076s.974-2.075 2.176-2.075zm0 7.891c2.658 0 4.814 2.056 4.814 4.592 0 2.536-2.156 4.592-4.814 4.592C2.983 19.592.828 17.536.828 15c0-2.536 2.155-4.592 4.814-4.592zm0 2.516c1.202 0 2.176.93 2.176 2.076 0 1.147-.974 2.076-2.176 2.076-1.202 0-2.176-.93-2.176-2.076 0-1.147.974-2.076 2.176-2.076zm0 7.891c2.658 0 4.814 2.057 4.814 4.593S8.3 30 5.642 30C2.983 30 .828 27.944.828 25.408c0-2.536 2.155-4.593 4.814-4.593zm0 2.517c1.202 0 2.176.93 2.176 2.076s-.974 2.075-2.176 2.075c-1.202 0-2.176-.929-2.176-2.075 0-1.147.974-2.076 2.176-2.076z" fill="#F7F4F3"/></svg>