<svg width="61" height="72" fill="none" xmlns="http://www.w3.org/2000/svg"><path fill-rule="evenodd" clip-rule="evenodd" d="M51.995 5.56c.526.56.927 1.347 1.204 2.36.221.826-.028 1.306-.747 1.44-.305.08-.595.04-.872-.12-.249-.186-.346-.426-.291-.72.056-.747-.124-1.494-.539-2.24-.166-.24-.733-.986-1.701-2.24 1.273.293 2.255.8 2.946 1.52zm-3.775 6.88c-.5-1.494-1.038-2.626-1.619-3.4a5.995 5.995 0 00-3.196-2.2c-4.233-1.254-7.996-1.614-11.288-1.08-.443.08-1.757.214-3.943.4-1.66.08-2.89.16-3.693.24-1.439.134-2.629.36-3.57.68-1.714.534-4.204 1.106-7.47 1.72-1.549.266-2.6.666-3.153 1.2-.554.586-.914 1.626-1.08 3.12-.193 1.334-.11 2.16.25 2.48.304.346 1.148.48 2.531.4 15.245-1.147 24.458-1.827 27.64-2.04 4.066-.214 6.141-.32 6.224-.32.637.08 1.107.094 1.411.04.969 0 1.287-.414.956-1.24zm5.27.8c.636 0 1.19-.08 1.66-.24 1.825-.506 3.14-.347 3.942.48.72.666 1.079 1.906 1.079 3.72.027 3.6-.374 8.973-1.204 16.12-.083.774-.262 1.266-.538 1.48-.277.24-.816.346-1.619.32-1.632-.08-2.628-.334-2.988-.76-.36-.4-.43-1.386-.207-2.96.387-2.906.636-5.094.746-6.56.138-1.36.816-1.934 2.033-1.72 1.107.16 1.702-.334 1.785-1.48v-4.72c-.084-.854-.263-1.386-.54-1.6-.276-.294-.871-.454-1.784-.48-.94 0-1.798.08-2.573.24-.913.16-1.507.386-1.785.68-.276.347-.372.986-.29 1.92.332 4.986.193 9.84-.415 14.56-.277 2.534-.401 5.56-.374 9.08 0 2 .07 5.014.208 9.04.027 1.92.041 3.106.041 3.56-.027 1.334-.207 2.52-.538 3.56-.554 1.547-1.122 2.586-1.702 3.12-1.272 1.12-1.91 2.573-1.91 4.36 0 .426-.123 1.066-.372 1.92-.112 1.147-.83 1.906-2.16 2.28-.802.24-1.632.414-2.49.52-1.687.186-2.738.12-3.153-.2-.443-.346-.692-1.334-.747-2.96-.083-1.147-.262-1.814-.539-2-.276-.24-1.023-.226-2.24.04-5.008 1.094-9.186 1.52-12.534 1.28-.499.88-.747 2.026-.747 3.44-.055 1.12-.65 1.734-1.784 1.84-.775.134-1.964.386-3.57.76-1.383.266-2.462.054-3.236-.64-.692-.64-.968-1.654-.83-3.04l.083-2.2c.166-1.174-.332-1.934-1.494-2.28-1.356-.4-2.31-1.134-2.863-2.2-.415-.8-.623-1.934-.623-3.4 0-2-.18-5.894-.539-11.68-.304-4.88-.331-8.774-.083-11.68l-.208-.92c-.36.88-.954 1.506-1.784 1.88-.388.16-1.175.36-2.366.6-.525.08-.927-.04-1.203-.36-.276-.266-.415-.653-.415-1.16l.415-16.2c.027-.666.442-1.254 1.245-1.76.276-.134.72-.306 1.329-.52.276-.134.913-.2 1.909-.2.774-.054 1.245-.306 1.41-.76.608-1.76.608-3.56 0-5.4-.304-.88-.345-1.453-.124-1.72.277-.32.913-.4 1.91-.24.526.026.926-.094 1.203-.36.83-.8 2.2-1.28 4.108-1.44 1.55-.08 3.721-.386 6.516-.92 2.989-.56 5.133-.906 6.432-1.04 3.708-.346 6.115-.534 7.221-.56 2.712-.08 5.119.106 7.221.56 1.522.4 3.32 1 5.395 1.8 1.715.694 2.92 2.36 3.61 5 .25.854.637 1.426 1.163 1.72.44.24 1.076.4 1.906.48zM42.325 1.36c-2.905-.186-6.89.014-11.951.6-.554.08-1.122-.04-1.703-.36-.857-.427-1.382-.68-1.576-.76.609-.374.954-.56 1.038-.56L42.078 0c.054 0 .429.053 1.12.16.25.08.415.294.499.64 0 .294-.18.48-.54.56-.25.08-.527.08-.831 0zM34.94 9.2c.636.453.913.894.83 1.32-.139.586-.5.84-1.08.76-1.605-.24-3.638-.16-6.1.24-3.127.453-5.133.694-6.018.72-.637 0-1.12-.04-1.453-.12-.415-.054-.608-.294-.58-.72.083-.48.345-.72.788-.72.11 0 .47.066 1.079.2.415.027.734 0 .954-.08 1.19-.134 2.933-.334 5.23-.6 1.991-.24 3.665-.574 5.02-1 .637-.16 1.08-.16 1.33 0zm9.17 6.4c-3.819 0-6.101.014-6.847.04l-26.229 1.72c-.691.08-1.218.28-1.576.6-.36.347-.568.894-.623 1.64-.442 5.494-.664 8.506-.664 9.04 0 1.28.028 3.16.083 5.64.028 2.24-.069 4.12-.29 5.64-.084.586.096 1.653.538 3.2.388-1.36.734-2.147 1.038-2.36.305-.24 1.106-.36 2.407-.36 1.604 0 2.559-.027 2.864-.08 6.446-.56 14.04-.88 22.782-.96 2.075-.026 5.105-.346 9.089-.96.636-.134 1.093-.294 1.37-.48.303-.266.483-.72.538-1.36 0-.694.111-1.68.332-2.96.222-1.386.346-2.4.373-3.04.25-5.734.25-10.026 0-12.88-.084-1.2-.263-1.894-.54-2.08-.22-.186-.995-.214-2.323-.08-.274.053-1.048.08-2.322.08zm-6.308 4.52c0 .614-.607.92-1.825.92h-4.565c-1.052-.054-2.394.014-4.026.2-2.02.214-3.32.32-3.901.32h-1.743c-.277 0-.484-.146-.623-.44-.054-.586.166-.84.664-.76.969.08 2.2.026 3.694-.16 1.881-.24 3.098-.36 3.652-.36 3.43 0 5.713-.106 6.847-.32 1.218-.24 1.826-.04 1.826.6zm19.38 12.04c.277-1.786.416-4.2.416-7.24-.914.614-1.467 1.48-1.66 2.6l-.374 2.76c-.36.827-.318 1.614.125 2.36.249.4.567.546.953.44.278-.107.458-.414.54-.92zm-1.535 11.88c.028.666-.276.986-.913.96-.525-.027-.76-.386-.705-1.08.11-.854.165-1.454.165-1.8 0-.96.042-1.666.124-2.12 0-.454.235-.68.706-.68.442.053.706.28.788.68v2.36c-.165.186-.22.746-.165 1.68zm-7.76-2.96c-.581-.56-1.965-.827-4.15-.8l-1.411.04c-1.91.293-4.233.452-6.971.48-3.128 0-5.465.013-7.014.04-4.122.133-9.075.386-14.857.76-1.576.16-2.821.813-3.735 1.96-.913 1.146-1.259 2.466-1.037 3.96.636-.187 1.59-.734 2.863-1.64 1.162-.827 2.186-1.294 3.071-1.4L8.92 49.44c-.331.293-.373.64-.124 1.04.193.213.526.186.996-.08l2.033-1.44c3.265-2.32 6.018-3.96 8.259-4.92-2.878 2.48-4.413 3.8-4.607 3.96-1.798 1.466-3.431 2.64-4.897 3.52-.746.452-1.23.906-1.452 1.36-.139.346-.194.906-.166 1.68v.8c.055.32.18.573.373.76 1.19-.348 2.891-1.08 5.105-2.2-.139.506-.692 1.213-1.66 2.12-1.107 1.04-2.02 1.96-2.74 2.76-.442.533-.345 1.186.291 1.96.25.266.512.36.789.28.11-.054.346-.2.705-.44.36-.267 1.3-.934 2.822-2 1.134-.828 2.006-1.548 2.614-2.16.111-.294.027-.574-.25-.84-1.466-1.387-1.742-2.987-.83-4.8.915-1.787 2.187-2.36 3.82-1.72l.538-.16c.747-.24 1.384-.16 1.91.24.331.213.746.693 1.244 1.44.638.746.54 1.64-.29 2.68-.996 1.226-2.048 2.133-3.154 2.72a40.017 40.017 0 00-7.885 5.88c1.743.613 2.863.893 3.361.84.47-.027 1.3-.467 2.49-1.32a139.4 139.4 0 014.773-3.12c.636-.374 1.272-.44 1.909-.2-.609.613-1.66 1.4-3.154 2.36-1.356.906-2.337 1.693-2.947 2.36 1.356.88 2.794.772 4.316-.32 1.273-.96 3.763-2.667 7.47-5.12 1.023-.694 2.033-1.04 3.029-1.04-.664.56-2.297 1.72-4.896 3.48-1.937 1.306-3.431 2.506-4.482 3.6 1.245.32 2.435.266 3.569-.16.691-.24 1.632-.76 2.822-1.56a255.72 255.72 0 002.739-1.96c1.106-.748 2.158-1.32 3.154-1.72-.36.8-1.134 1.652-2.324 2.56-1.19.933-1.937 1.706-2.241 2.32 2.932.133 5.492-.747 7.677-2.64.969-.8 2.338-1.8 4.109-3 .166-.107.415-.294.747-.56.304-.187.622-.16.953.08-.33.613-.968 1.253-1.908 1.92-1.08.773-1.785 1.426-2.117 1.96 2.268-.027 4.066-.68 5.395-1.96 1.218-1.227 1.784-2.76 1.701-4.6a120.688 120.688 0 010-4.48c.14-2.987.208-4.507.208-4.56.028-2.107-.248-3.427-.83-3.96zm7.22 8.08c.14.454.208.8.208 1.04v4.64c0 .774-.291 1.16-.871 1.16-.526-.054-.789-.386-.789-1v-1.44c0-.374.055-1.094.166-2.16.138-.854.138-1.547 0-2.08-.027-.266.152-.44.539-.52.333-.027.582.094.748.36zm-17.305.68c.47-.534 1.26-.8 2.367-.8 2.656 0 4.025.92 4.108 2.76.055 1.173-.36 2.173-1.245 3-.83.8-1.867 1.173-3.112 1.12-1.938 0-2.905-1.186-2.905-3.56 0-1.174.262-2.014.787-2.52zm-6.182 4.12c-.278.08-.873.147-1.785.2-.747.026-1.314.16-1.701.4-.527-.16-.83-.253-.914-.28-.277-.134-.43-.346-.457-.64 0-.506.32-.8.955-.88l3.569-.56c.58-.08.94.173 1.079.76.084.56-.166.893-.746 1zm10.042-.32c.442-.4.677-.866.705-1.4.056-.426-.123-.84-.538-1.24-.36-.4-.747-.6-1.162-.6-.498-.027-.954.173-1.369.6-.415.453-.581.934-.499 1.44.166 1.094.54 1.666 1.121 1.72.691.026 1.272-.147 1.742-.52zm-2.324 11.68c.027.694.11 1.186.249 1.48.138.534.47.906.996 1.12.331.134 1.01-.08 2.033-.64 1.023-.534 1.577-1 1.66-1.4.222-.694.36-1.214.415-1.56a3.78 3.78 0 000-1.92c-2.268.614-3.68.973-4.233 1.08-.913.186-1.286.8-1.12 1.84zM12.322 20.44c.58.026 1.41-.014 2.49-.12 1.19-.134 2.02-.2 2.49-.2.608 0 1.01.2 1.203.6-.11.374-.331.626-.664.76-.139.054-.43.106-.872.16h-4.523c-.498-.08-.719-.306-.664-.68 0-.427.18-.6.54-.52zM7.01 21.56c.194-1.36.194-2.52 0-3.48-1.521.186-2.544.454-3.07.8-.47.347-.762 1.054-.872 2.12-.194 1.253-.139 2.053.166 2.4.331.4 1.425.96 3.278 1.68.194-1.574.36-2.747.498-3.52zm-3.693 3.92c-.415 0-.664.24-.746.72-.084 1.84-.097 3.093-.043 3.76.028 1.52.305 2.946.83 4.28a12.571 12.571 0 001.204-4.28c.084-.907.041-2.187-.124-3.84 0-.24-.124-.414-.373-.52a1.4 1.4 0 00-.748-.12zm17.099 24.76c-.638 0-1.218.254-1.744.76-.498.48-.746 1.014-.746 1.6.083.96.484 1.453 1.202 1.48.693 0 1.33-.24 1.91-.72.553-.534.83-1.146.83-1.84 0-.4-.138-.734-.415-1-.277-.214-.622-.307-1.037-.28zm-17.638-4.6c.222.506.318 1.306.29 2.4.084 1.094.055 2.734-.082 4.92-.028 1.947.235 3.547.787 4.8.166.4.084.747-.249 1.04-.221.266-.58.426-1.079.48-.58.027-.871-.334-.871-1.08v-6.36c-.056-.56-.084-1.56-.084-3 .056-1.306.015-2.32-.124-3.04-.138-.614.083-.92.664-.92.222 0 .471.253.748.76zm1.286 17.2c0 1.066.4 1.974 1.203 2.72.47.454 1.41 1.04 2.822 1.76-1.633.96-3.057.814-4.274-.44-1.107-1.2-1.48-2.56-1.122-4.08a.749.749 0 01.54-.52c.193-.053.388-.014.581.12.167.106.25.253.25.44zm11.952 2.24c-.138.106-.498.106-1.08 0-.525-.107-.83.066-.912.52-.36 1.546-.153 2.772.622 3.68.388.453.9.666 1.536.64.36-.027.899-.148 1.618-.36.885-.134 1.467-.414 1.743-.84.278-.427.388-1.134.332-2.12 0-.694-.249-1.107-.747-1.24-.718-.027-1.217-.08-1.494-.16-.276-.08-.816-.12-1.618-.12z" fill="#000"/><path fill-rule="evenodd" clip-rule="evenodd" d="M42.326 1.36c-2.905-.186-6.89.014-11.951.6-.554.08-1.122-.04-1.703-.36-.857-.427-1.383-.68-1.576-.76.608-.374.954-.56 1.038-.56L42.078 0c.054 0 .429.053 1.12.16.25.08.415.294.499.64 0 .294-.18.48-.54.56-.25.08-.527.08-.831 0zM34.94 9.2c.636.453.913.894.83 1.32-.14.586-.5.84-1.08.76-1.605-.24-3.638-.16-6.1.24-3.127.453-5.134.694-6.018.72-.637 0-1.12-.04-1.453-.12-.415-.054-.608-.294-.58-.72.083-.48.345-.72.788-.72.11 0 .47.066 1.079.2.415.027.733 0 .954-.08 1.19-.134 2.933-.334 5.23-.6 1.991-.24 3.665-.574 5.02-1 .637-.16 1.08-.16 1.33 0zm2.862 10.92c0 .614-.607.92-1.825.92h-4.565c-1.052-.054-2.394.014-4.026.2-2.02.214-3.32.32-3.901.32h-1.743c-.277 0-.484-.146-.623-.44-.055-.586.166-.84.664-.76.969.08 2.2.026 3.694-.16 1.881-.24 3.098-.36 3.652-.36 3.43 0 5.713-.106 6.847-.32 1.218-.24 1.826-.04 1.826.6zm17.306 29.04c.138.454.207.8.207 1.04v4.64c0 .774-.291 1.16-.871 1.16-.527-.054-.789-.386-.789-1v-1.44c0-.374.055-1.094.166-2.16.138-.854.138-1.547 0-2.08-.027-.266.152-.44.539-.52.333-.027.582.094.748.36zM2.777 45.64c.222.506.318 1.306.29 2.4.083 1.094.055 2.734-.083 4.92-.027 1.947.235 3.547.788 4.8.166.4.084.747-.249 1.04-.221.266-.58.426-1.079.48-.58.027-.871-.334-.871-1.08v-6.36c-.056-.56-.084-1.56-.084-3 .055-1.306.015-2.32-.124-3.04-.138-.614.083-.92.664-.92.222 0 .47.253.748.76zm1.286 17.2c0 1.066.4 1.974 1.203 2.72.47.454 1.41 1.04 2.821 1.76-1.632.96-3.057.814-4.273-.44-1.108-1.2-1.48-2.56-1.122-4.08a.749.749 0 01.54-.52c.193-.053.387-.014.58.12.168.106.25.253.25.44z" fill="#95564E"/></svg>