<svg width="65" height="73" fill="none" xmlns="http://www.w3.org/2000/svg"><path fill-rule="evenodd" clip-rule="evenodd" d="M55.072 8.38c1.19 3.333-.055 4.96-3.735 4.88l-7.221-.24c-2.878-.108-5.285-.148-7.221-.12-5.893.373-10.334.493-13.322.36-.802-.027-1.618.333-2.448 1.08-.858.96-1.522 1.64-1.992 2.04-.415.347-.623.8-.623 1.36 0 .24.11.76.332 1.56.609-.16 1.37-.507 2.283-1.04 1.162-.694 1.964-1.148 2.407-1.36a4.456 4.456 0 01-.872 1.32c-.36.32-.622.56-.788.72l-1.868 1.44c-1.328.933-1.826 2.44-1.494 4.52.664-.32 1.577-.894 2.74-1.72 1.078-.8 1.936-1.32 2.572-1.56.25.32.277.572.083.76-.304.24-.512.4-.622.48l-3.652 3.36c-.913.772-1.08 1.76-.498 2.96.664-.107 1.55-.56 2.656-1.36 1.162-.8 2.158-1.294 2.988-1.48-.387.666-.927 1.252-1.619 1.76-.83.533-1.41.92-1.743 1.16-1.134.986-1.701 1.652-1.701 2-.056.373.47 1.213 1.577 2.52l6.142-4.2c-.47.853-1.148 1.693-2.034 2.52-1.079.96-1.895 1.68-2.448 2.16-.47.48-.733.733-.789.76-.193.32-.193.692 0 1.12.692 1.36 1.619 1.586 2.78.68.83-.614 2.048-1.574 3.653-2.88 1.19-.96 2.158-1.494 2.905-1.6-.581.88-1.48 1.84-2.698 2.88-1.743 1.466-2.711 2.292-2.905 2.48-.498.506-.705.96-.622 1.36.027.4.346.8.954 1.2.332.213.664.252.996.12.139-.027.43-.187.872-.48l5.021-3.56c.443-.32.83-.36 1.162-.12-.525.8-1.494 1.706-2.905 2.72-1.521 1.12-2.545 2-3.07 2.64.525.586 1.05.88 1.576.88.498.052 1.065-.187 1.702-.72 1.134-.907 1.812-1.414 2.033-1.52.913-.64 1.854-1.12 2.822-1.44-.36.64-.83 1.213-1.41 1.72-.61.48-1.038.84-1.287 1.08-1.162.96-1.757 1.613-1.785 1.96-.083.4.318 1.252 1.204 2.56.332-.16.968-.6 1.909-1.32.83-.587 1.618-.974 2.365-1.16-.193.933-.913 1.786-2.158 2.56-1.853 1.226-2.393 2.773-1.618 4.64.304.16.636.08.996-.24.415-.32.747-.414.996-.28.249.213.263.44.041.68-.193.32-.622.786-1.286 1.4-.609.506-1.024.96-1.245 1.36.083.106.193.266.332.48.193.026.58.28 1.162.76.498.373.954.44 1.37.2.442-.24.663-.64.663-1.2-.083-.64-.124-1.12-.124-1.44 0-.48.069-1.134.207-1.96.166-.907.25-1.56.25-1.96.027-1.948 1.12-3.4 3.278-4.36.968-.48 2.504-1.094 4.606-1.84 3.486-1.308 5.672-3.56 6.557-6.76 1.356-4.88 2.075-10.4 2.158-16.56l.208-4.88c0-.508.18-.787.54-.84.248-.027.456.013.622.12.166.16.235.32.207.48-.083.64.083 1.08.498 1.32.11.027.581.12 1.411.28.581.08 1.26.066 2.034-.04a47.57 47.57 0 002.033-.44c1.162-.187 1.95-.147 2.366.12.415.24.705.92.871 2.04.277 2.666.208 4.852-.207 6.56a33.263 33.263 0 00-.913 6.2 29.18 29.18 0 01-.581 4.48c-.94 4.213-3.694 6.853-8.259 7.92-1.577.32-2.752.48-3.527.48-1.439-.053-2.947.24-4.524.88-.775.293-2.13.933-4.067 1.92-1.521.827-2.656 2.04-3.403 3.64-.747 1.546-.982 3.146-.705 4.8.138.613.512.96 1.12 1.04.415 0 1.411.093 2.988.28 1.217.133 2.2.16 2.947.08 1.494-.08 3.638.16 6.432.72.581.08.996.252 1.245.52.25.267.346.72.29 1.36-.027.48-.04 2.666-.04 6.56.028.986-.098 1.6-.374 1.84-.25.24-.886.386-1.91.44-1.66.026-3.637-.014-5.934-.12a712.28 712.28 0 01-5.934-.32c-3.376-.267-5.935-.44-7.678-.52-2.96-.214-5.52-.214-7.677 0-.692.026-1.467-.054-2.324-.24-.554-.08-1.052-.44-1.494-1.08-.443-.64-.54-1.12-.29-1.44.525-.694.802-1.6.83-2.72-.084-1.228-.098-2.16-.042-2.8.027-.64.152-1.094.373-1.36.25-.32.706-.56 1.37-.72 1.023-.24 2.24-.387 3.652-.44.802-.028 2.033-.067 3.693-.12 1.162-.027 1.84-.16 2.034-.4.166-.214.235-.853.207-1.92l-.58-4.84c-.084-1.174-.928-2.267-2.532-3.28a185.312 185.312 0 01-2.49-1.52c-.885-.64-1.619-1.254-2.2-1.84-.553-.694-1.314-.88-2.282-.56-2.767 1.04-5.63.946-8.59-.28-2.02-.8-3.196-2.094-3.528-3.88-.72-3.334-1.162-6.014-1.328-8.04-.25-2.96-.125-5.667.373-8.12.055-.16.014-.72-.124-1.68-.028-.72.138-1.254.498-1.6.387-.348.954-.48 1.701-.4.858.08 1.425.052 1.702-.08 1.688-.48 2.726-.8 3.112-.96.83-.32 1.314-.787 1.453-1.4.166-.64-.07-1.187-.706-1.64-.996-.667-1.452-1.64-1.37-2.92.111-1.787.125-2.814.042-3.08-.083-.24.083-.44.498-.6a2.614 2.614 0 011.204-.12c2.24.026 5.63.04 10.167.04 3.957.053 7.36.24 10.21.56 1.936.24 4.288.293 7.054.16 1.577-.027 3.943-.12 7.097-.28 1.245-.054 2.158.066 2.739.36.525.267.94.8 1.245 1.6zm-5.395-.24l-6.557.08c-2.6 0-4.759-.08-6.474-.24-1.605-.16-5.548-.346-11.828-.56-.775 0-3.043.04-6.806.12-.94 0-1.452.48-1.535 1.44-.028.64.387 1.094 1.245 1.36 1.688.534 3.292.934 4.814 1.2 2.02.32 4.717.373 8.092.16 3.957-.186 6.682-.24 8.176-.16l12.367.12c1.19 0 1.867-.413 2.033-1.24.25-1.12-.249-1.813-1.494-2.08-.442-.133-1.12-.2-2.033-.2zm10.25 8.96l-4.814.36c.305 1.413.374 3.133.208 5.16-.139 1.146-.305 2.852-.498 5.12-.139 2.906-.457 5.36-.955 7.36-.636 2.56-1.743 4.84-3.32 6.84 2.269-.4 3.61-.68 4.026-.84 2.02-.747 3.403-1.76 4.15-3.04 1.632-2.987 2.531-5.574 2.697-7.76.083-1.627.387-3.694.913-6.2.415-2.134.498-3.814.25-5.04-.167-.854-.43-1.387-.79-1.6-.359-.293-.981-.413-1.867-.36zm-14.276 41c-2.683 2.053-4.676 3.613-5.976 4.68-.47.32-.788.586-.954.8-.36.347-.54.747-.54 1.2 3.68.4 6.377.56 8.093.48.221 0 .567.013 1.037.04.415 0 .692-.134.83-.4.194-.453.789-1.08 1.785-1.88.913-.614 1.41-1.28 1.494-2 .083-.64-.07-1.08-.457-1.32-.498 0-.968.173-1.41.52-.526.48-.941.826-1.246 1.04l-3.693 2.84c-.581.4-1.01.36-1.287-.12-.249-.32-.124-.64.374-.96l5.976-4.08c.36-.24.525-.587.498-1.04-.083-.32-.388-.52-.913-.6-1.605-.16-2.808.107-3.61.8zm-2.531.64c.664-.427 1.134-.88 1.41-1.36-.968-.746-2.13-.653-3.485.28l-5.52 3.88c-.913.64-1.425 1-1.535 1.08-.554.427-.955.907-1.204 1.44 1.217.507 2.02.72 2.407.64.332-.026.955-.48 1.868-1.36.553-.533 1.3-1.147 2.24-1.84.499-.4 1.26-1 2.283-1.8.332-.24.844-.56 1.536-.96zm-8.508-1.56c-1.41.8-2.988 1.853-4.73 3.16a3065.78 3065.78 0 00-4.856 3.76c.72.133 1.77.28 3.154.44.968.026 1.701-.16 2.2-.56 1.161-1.04 2.697-2.227 4.606-3.56 3.154-2.267 4.758-3.4 4.814-3.4-2.49-.48-4.22-.427-5.188.16zm15.438 7.96c.443 0 .789-.266 1.038-.8l-.25-.4c-.608.16-.954.414-1.037.76 0 .133.083.28.25.44zM18.718 13.7c-.139.4-.042.6.29.6.415.027.802-.214 1.162-.72-.193-.32-.346-.507-.456-.56-.498-.16-.83.067-.996.68zm-8.3 7.08c-.581 5.76-.166 10.747 1.245 14.96.664 2.026 2.02 3.12 4.067 3.28.387.026 2.24.04 5.56.04-.58-1.174-1.23-1.88-1.95-2.12-.664-.32-.899-.68-.705-1.08.249-.4.276-.814.083-1.24-.305-.48-.498-.84-.581-1.08-.83-1.6-1.245-3.548-1.245-5.84-.055-1.36-.11-2.4-.166-3.12-.028-1.174.027-2.2.166-3.08.055-.24.083-1.28.083-3.12 0-.614-.222-.96-.664-1.04-1.218-.32-2.463-.107-3.735.64-1.3.8-2.02 1.733-2.158 2.8zm19.214 36.28c-1.77 1.2-3.085 2.12-3.942 2.76-1.522 1.147-2.67 2.28-3.445 3.4l.664.64 9.504-6.72c-.94-.747-1.868-.773-2.78-.08zm-2.2-.12c-1.991-.186-3.36.014-4.108.6-.774.64-.996 1.72-.664 3.24.526-.4 1.356-.973 2.49-1.72.942-.72 1.702-1.427 2.283-2.12zm-9.835.32c-.221 2.534-.014 4.96.623 7.28.166.667.014 1.04-.457 1.12-.332.08-.636-.093-.913-.52-.664-1.013-.996-2.453-.996-4.32 0-1.893.332-3.413.996-4.56.498.187.747.52.747 1z" fill="#000"/><path fill-rule="evenodd" clip-rule="evenodd" d="M54.2 3.26L43.452 1.82c-.637-.107-.885-.466-.747-1.08.166-.48.553-.64 1.162-.48.94.294 2.13.534 3.569.72l3.652.56c.996.187 2.462.24 4.399.16.166.054.47.12.913.2.388.16.54.454.456.88-.083.32-.29.48-.622.48-.028 0-.319-.026-.872-.08L54.2 3.06v.2zm-19.13-2.2l.498-.08c.886-.16 1.328.067 1.328.68-.055.507-.512.76-1.37.76l-2.614-.12c-.443-.08-.664-.333-.664-.76.083-.453.332-.68.747-.68l2.075.2zM47.892 18.1l.25-1.48c.11-.48.414-.64.912-.48.388 0 .623.133.706.4l.415 3.04c.027.373-.18.64-.623.8-.58.186-.968 0-1.162-.56-.22-.827-.387-1.4-.498-1.72zm.747 5.08c.581 0 .886.306.913.92 0 1.093.028 1.653.083 1.68.028.16.042.573.042 1.24-.25 2.88-.664 4.986-1.245 6.32-.194.72-.443 1.226-.747 1.52-.36.4-.637.666-.83.8-.332.32-.691.36-1.08.12-.36-.267-.456-.574-.29-.92.277-.454.484-.8.623-1.04 1.19-2.267 1.743-4.948 1.66-8.04-.083-.72-.11-1.253-.083-1.6.083-.64.402-.973.954-1zM40.05 69.9c1.134.08 2.102.013 2.905-.2.802-.16 1.19.12 1.162.84 0 .32-.125.56-.374.72-.249.186-.512.24-.788.16-.83-.187-1.826-.28-2.988-.28H37.06c-2.214-.08-5.548-.12-10.002-.12-2.351 0-4.121-.334-5.312-1 .332-.374.706-.574 1.12-.6.14 0 .485.04 1.038.12 1.273.186 2.78.266 4.524.24.969 0 2.462-.04 4.482-.12 1.079-.053 3.459.027 7.138.24zm7.885.96c.083-.293.249-.493.498-.6.221-.133.429-.133.622 0 .222.107.733.227 1.536.36.72.107 1.259.36 1.618.76-.498.56-1.093.84-1.784.84-.332 0-.927-.107-1.785-.32-.664-.16-.899-.507-.705-1.04zM1.578 29.02c.055-.64.305-.96.747-.96.609.027.94.307.996.84.028.32-.014.787-.124 1.4-.083 2.187-.235 3.8-.457 4.84-.691 3.334.761 6.094 4.358 8.28.166.134.429.28.788.44.332.16.554.387.664.68-.608.694-1.425.773-2.448.24-1.577-.746-2.877-1.906-3.901-3.48-1.162-1.813-1.508-3.613-1.038-5.4.554-2.133.595-3.813.125-5.04-.139-.32-.18-.48-.125-.48.277-.16.415-.613.415-1.36zm14.608 18c-.138.027-.512.04-1.12.04-.581-.08-.955-.16-1.12-.24-.36-.186-.54-.52-.54-1 0-.32.124-.52.373-.6.222-.08.457-.066.706.04.249.134.705.2 1.37.2.58.08.87.4.87.96 0 .32-.178.52-.539.6z" fill="#95564E"/></svg>