<svg width="57" height="48" fill="none" xmlns="http://www.w3.org/2000/svg"><path fill-rule="evenodd" clip-rule="evenodd" d="M45.913 6.466c.188.363.418.454.69.272l1.912-.996c.23-.141.616-.373 1.16-.695a4.514 4.514 0 011.63-.574l-3.291 2.689c-.272.242-.429.393-.47.453-.126.14-.074.312.156.514.272.302.45.464.533.484.209.12.45.11.721-.031l1.035-.786c.543-.362.835-.553.877-.574a1.995 1.995 0 011.129-.211c-.126.403-.387.765-.784 1.087-.48.343-.804.615-.972.817-.397.443-.355.825.126 1.147.522.322 1.055.333 1.598.03.168-.08.46-.25.878-.513.397-.181.825-.211 1.285-.09l-1.598 1.359c-.21.202-.262.393-.157.574.02.061.157.222.407.483.272.263.512.233.721-.09.71-1.228 1.18-2.235 1.411-3.021.293-1.128.198-2.236-.282-3.324-.355-.866-1.055-1.53-2.1-1.994-1.045-.484-1.965-.514-2.759-.09-.209.1-1.431.956-3.668 2.568-.209.2-.272.372-.188.512zm1.63-4.109c2.905-1.127 5.538-.604 7.9 1.572.752.745 1.17 1.672 1.254 2.78.104 1.269-.146 2.528-.753 3.777-.418.906-1.128 1.983-2.131 3.232-.314.423-.68.423-1.097 0-.272-.281-.753-.624-1.442-1.026-.67-.423-1.14-.787-1.41-1.089-.46-.523-1.025-.553-1.694-.09-.271.162-.553.434-.846.816-.355.464-.596.755-.721.876-.334.303-.502.594-.502.877 0 .24.115.543.345.906 1.108 1.632 1.776 2.638 2.006 3.021.732 1.148 1.275 2.216 1.63 3.203.544 1.39.784 3.092.721 5.107-.062 2.154-.48 4.34-1.253 6.556-.753 2.035-1.997 3.727-3.73 5.076-.482.342-.764.615-.847.816-.105.322.031.685.407 1.088.773.886.743 1.782-.094 2.689-.731.866-1.295 1.5-1.693 1.903-1.295 1.229-2.413 1.088-3.354-.423-.083-.12-.23-.433-.438-.936-.314-.625-.773-.796-1.38-.515-2.716 1.37-6.415 2.287-11.097 2.75-1.4.141-3.124.08-5.172-.181-.67-.06-1.17-.03-1.505.09-.46.141-.836.493-1.128 1.058-.46.846-.972 1.34-1.536 1.48-.544.121-1.286-.04-2.226-.483-.752-.343-1.191-.695-1.317-1.058-.083-.363.094-.896.533-1.601.439-.665.627-1.148.564-1.45-.062-.322-.386-.715-.971-1.178-1.756-1.33-3.124-2.911-4.107-4.744-.794-1.491-1.254-2.387-1.38-2.69-.48-1.067-.71-2.053-.689-2.96.042-.201-.063-.745-.313-1.632-1.15-4.21-1.014-8.792.407-13.747.105-.302.491-1.058 1.16-2.266.272-.565.188-.977-.25-1.24-.669-.382-1.15-.331-1.443.152l-1.254 1.692c-.438.584-.857.886-1.253.907-.419.06-.91-.132-1.474-.575C2.07 13.548.856 11.745.334 9.49c-.084-.402-.052-.735.094-.997 1.233-2.457 2.392-4.19 3.48-5.197.982-.906 2.12-1.198 3.416-.876 2.132.544 3.616 1.36 4.452 2.448l.407.483c.084.121.366.222.847.302.397.06.575.283.533.665-.021.262-.199.504-.533.725l-.784.604c-.962 1.048-1.65 1.854-2.069 2.418-.271.403-.428.624-.47.665-.084.282.031.543.345.786.313.22.595.332.846.332.25-.02.512-.191.784-.514.083-.12.867-.846 2.35-2.176 1.025-.886 2.373-1.692 4.045-2.417.96-.402 2.424-.987 4.388-1.752 1.003-.383 2.184-.544 3.543-.484.794.061 1.974.212 3.542.453.167.02.439.081.815.182.355.08.638.1.846.06 1.526-.1 3.03.152 4.514.756 1.087.464 2.372 1.219 3.856 2.266 1.986 1.491 3.27 2.599 3.856 3.324a4.127 4.127 0 001.88 1.45l1.882-2.538c.354-.443.23-.836-.377-1.178a34.404 34.404 0 01-1.442-1.06c-.585-.463-1.086-.795-1.504-.997-.418-.201-.627-.433-.627-.694 0-.262.198-.493.595-.695.648-.322 1.17-.907 1.568-1.752.376-.728 1.086-1.302 2.131-1.726zm-12.695-.936c.271.14.45.242.532.302.168.141.189.333.063.574-.313.544-.742.675-1.285.392-.606-.302-1.327-.513-2.163-.634-.084-.02-.836-.09-2.257-.212-2.884-.262-6.008.132-9.373 1.179-.313.14-.585.241-.815.302-.314.1-.669.06-1.066-.12.71-.726 1.672-1.25 2.884-1.573C25.36.524 29.508.342 33.813 1.088c.272.04.616.152 1.035.333zm-6.02 4.32c-.396-.181-.7.02-.908.605-.209.604-.199 1.42.031 2.447.063.342-.073.565-.407.665-.335.081-.575-.02-.721-.302-.189-.322-.387-.987-.596-1.994-.146-.685-.324-1.098-.533-1.239-.271-.181-.732-.181-1.38 0-3.343.826-6.363 2.115-9.059 3.867-.48.302-.606.786-.376 1.45.105.201.366.504.784.907.355.362.564.705.627 1.027-.397.14-.753.14-1.066 0l-.846-.544c-.71-.483-1.192-.694-1.442-.634-.23.08-.481.513-.753 1.299a6.77 6.77 0 01-2.069 3.141c-.418.404-.418.767 0 1.089.251-.121.753-.443 1.505-.968.69-.423 1.327-.735 1.912-.936-.334.584-.878 1.188-1.63 1.813-.815.745-1.348 1.269-1.599 1.57.335 0 .795-.2 1.38-.604.48-.382.93-.513 1.348-.392-.565.706-1.61 1.612-3.135 2.72-1.024.805-1.265 1.782-.721 2.93.188-.12.888-.604 2.1-1.45.836-.543 1.578-.937 2.226-1.178-.314.585-.889 1.24-1.724 1.964-1.003.867-1.662 1.511-1.975 1.934.606.14 1.38.04 2.32-.302 1.003-.383 1.734-.544 2.194-.484 0 .262-.157.504-.47.725-.293.242-.46.443-.502.604.209-.02.366.01.47.09.084.122.032.273-.156.454-.481.464-1.234 1.098-2.258 1.903-1.065.887-1.63 1.5-1.692 1.844-.042.362.25 1.168.877 2.417l4.358-2.932c-.084.484-.356.937-.815 1.36l-2.602 2.206c-.752.745-.804 1.41-.157 1.994.272.262.544.312.815.151.146-.08.355-.252.627-.514l4.483-2.931a.755.755 0 01-.188.665l-.345.333-3.824 3.111c-.335.282-.533.544-.596.786-.063.262.041.585.313.967.857 1.189 1.516 1.813 1.975 1.873.418.082 1.202-.341 2.351-1.268l4.295-3.173.157.212-5.549 5.59c.878.584 1.474.875 1.787.875.293 0 .836-.291 1.63-.876l5.267-3.746c-.523.806-1.422 1.762-2.696 2.87-1.422 1.23-2.372 2.146-2.853 2.75l1.599.514c.627.161 1.045-.01 1.254-.514.313-.926 1.076-1.581 2.288-1.964 1.525-.503 2.445-.886 2.759-1.148-.273.564-.847 1.219-1.725 1.964-.92.826-1.526 1.49-1.818 1.994 1.568.524 2.822.212 3.762-.937.397-.483 1.212-1.168 2.445-2.054.669-.463 1.066-.786 1.191-.967.356-.402.46-.896.314-1.48-.02-.222.052-.393.22-.514a1.25 1.25 0 01.689-.181c.46-.02.71.24.752.785-.02.524-.031.937-.031 1.239 0 .483.105.926.313 1.33l5.141-3.445c-.794.926-2.235 2.317-4.326 4.17-.271.2-.45.362-.532.483-.146.222-.105.453.125.695.334.322.732.292 1.191-.09.418-.323 1.38-.977 2.884-1.965 1.254-.765 2.194-1.47 2.821-2.115.523-.483.962-.684 1.317-.604-.063.262-.303.624-.721 1.088-.397.463-.638.906-.721 1.33a53.881 53.881 0 012.32-1.632c.815-.585 1.462-1.118 1.943-1.601.627-.222 1.244-.695 1.85-1.42 2.09-2.7 3.093-6.154 3.01-10.364-.711.12-1.234.201-1.568.241-.544.081-.993.061-1.348-.06-.815-.263-1.15-.655-1.003-1.179.062-.262.25-.372.564-.332.146 0 .387.05.721.151l.407.09c1.568.121 2.121-.573 1.662-2.084-.272-.846-.794-1.864-1.567-3.052-.983-1.47-1.59-2.448-1.819-2.931-.188-.383-.46-.504-.815-.363-.46.141-.731.191-.815.151-.125-.161-.094-.383.094-.665.146-.302.115-.523-.094-.665-.46.182-.731.373-.815.574-.167.242-.083.564.251.967 1.024 1.31 1.683 2.457 1.975 3.445.083.463-.031.765-.345.906-.293.181-.606.101-.94-.242-.126-.12-.23-.302-.314-.543-.46-1.068-1.17-2.115-2.131-3.142-.585-.585-1.557-1.41-2.916-2.478a4.008 4.008 0 01-.658-.484 1.138 1.138 0 01-.376-.845 1.707 1.707 0 011.222-.031c.146.061.512.252 1.097.574.23.121.544.393.94.816.335.242.576.373.722.393.272.06.533-.07.784-.393.355-.523.292-1.007-.189-1.45a161.789 161.789 0 00-2.82-2.266c-1.109-.846-2.132-1.51-3.073-1.994-.752-.403-1.975-.816-3.668-1.239-1.672-.382-2.894-.785-3.667-1.207zm10.19-3.051a.484.484 0 01.188.393c-.063.544-.397.846-1.003.907-.272.06-.47-.111-.596-.514 0-.504.334-.816 1.003-.937.146-.02.282.031.408.151zm-3.292 7.977c-.439-.161-1.097-.261-1.975-.302-.877-.06-1.525-.161-1.943-.302 1.149-.585 2.508-.775 4.075-.574.376.06.564.252.564.574a.901.901 0 01-.25.483c-.147.142-.304.182-.47.121zm-3.291 12.782c1.672-.907 2.842-1.45 3.51-1.632.67-.181 1.171-.242 1.505-.181.293.04.47.22.533.543-.062.302-.23.504-.501.604-1.233.222-2.55.685-3.95 1.39-.815.403-2.006 1.108-3.574 2.116-.752.483-1.39.422-1.912-.182-.668-.786-.763-1.41-.282-1.873.71-.685 1.066-1.551 1.066-2.599.02-.604-.042-1.521-.188-2.75 0-.14-.063-.342-.188-.604-.251-.504-.188-.886.188-1.148.397-.282.804-.262 1.222.06.46.263.575.625.345 1.089-.272.523-.355 1.158-.25 1.903.125.886.187 1.55.187 1.994.021.745.23 1.22.627 1.42.418.242.972.192 1.662-.15zM51.4 18.463c-.627-.886-1.003-1.572-1.128-2.055.606-.24 1.107-.11 1.504.393 2.111 2.68 3.23 5.177 3.355 7.493.02.766-.105 1.642-.377 2.63-.062.261-.345 1.127-.846 2.598-.209.483-.564.664-1.066.543-.502-.201-.606-.604-.313-1.208 1.149-2.256 1.442-4.25.877-5.983-.543-1.672-1.212-3.143-2.006-4.41zM41.211 34.93a.457.457 0 01.094-.483c.439-.504.815-.605 1.129-.302.23.282.668.674 1.316 1.177.481.443.721.927.721 1.45-.857-.16-1.84-.644-2.946-1.45-.188-.08-.293-.21-.314-.392zm9.279-.847c.146-.362.407-.594.784-.694.062-.02.167.01.313.09.126.081.188.151.188.212.146.625-.042 1.27-.564 1.933-.23.263-.48.303-.752.121-.042 0-.146-.14-.314-.423l.031-.271c.084-.202.189-.524.314-.968zm-19.404 5.953L27.92 43.39c1.212.101 2.413-.433 3.605-1.601.375-.343.23-.927-.44-1.753zm12.069.06c-.314.102-.648.303-1.003.605l-.91.695c-.292.201-.324.584-.094 1.147.188.423.492.695.91.817l.407-.121 1.85-2.025c.167-.262.114-.584-.157-.967-.251-.262-.586-.312-1.003-.15zM2.873 11.816c.125.262.303.302.533.12l.972-.785a63.97 63.97 0 001.661-1.39c.71-.524 1.38-.937 2.006-1.24-.042.424-.177.746-.407.968 0 .04-.209.232-.627.574L4.409 12.6c-.335.262-.407.493-.22.695.23.342.544.402.941.181.272-.201.46-.322.564-.363.815-.442 1.63-1.168 2.445-2.175.419-.565 1.066-1.42 1.944-2.569.627-.765.888-1.41.784-1.934-.168-.503-.7-1.017-1.6-1.54l-.783-.303c-1.149-.584-2.163-.695-3.04-.332-.878.342-1.526 1.108-1.944 2.296.313 0 .721-.2 1.223-.604.543-.403 1.055-.594 1.536-.574-1.442 1.35-2.268 2.135-2.477 2.357-.522.443-.92.785-1.191 1.027-.439.422-.616.957-.533 1.6.209-.12.898-.604 2.069-1.449.794-.544 1.494-.917 2.1-1.118-.355.785-1.097 1.581-2.225 2.386-.669.524-1.056.937-1.16 1.24-.042.062-.032.193.031.394zm2.665 6.888c.104.202.104.423 0 .666-.063.342-.105.604-.126.785-.063.322-.261.493-.595.514-.293.04-.491-.06-.596-.302-.063-.12-.105-.363-.125-.725.062-.786.365-1.178.909-1.178.25 0 .428.08.533.24zm-1.035 4.955c-.125.403-.199.695-.22.877-.125.342-.198.795-.219 1.36-.062.785-.115 1.228-.157 1.329-.292 2.68.659 5.357 2.853 8.037l.596.634c.46.605.46 1.098 0 1.48-.23.202-.47.212-.721.031-.084-.06-.251-.221-.502-.483-2.257-2.558-3.51-5.278-3.762-8.158.147-.464.251-1.209.314-2.236.041-1.047.146-1.833.313-2.356l.283-.817c.125-.261.334-.372.626-.332.419.101.617.312.596.634zm12.1 10.757l.47.423c-.125.322-.23.514-.313.574l-2.54 2.236c-.333.282-.658.252-.97-.09-.21-.242-.178-.494.093-.756 1.066-.806 1.902-1.581 2.508-2.327.209-.261.46-.281.752-.06zM9.675 26.62c-.543.12-.69.443-.438.967.146.343.438.353.877.03l3.104-2.084c-.481 0-1.055.14-1.724.422-.878.383-1.484.604-1.819.665zm7.837 17.312c-.208-.04-.48.131-.815.515-.292.403-.407.725-.345.966.021.263.168.434.44.515.145.06.375.12.689.181.335 0 .648-.161.94-.483.314-.283.44-.575.377-.877-.126-.484-.555-.756-1.286-.817z" fill="#000"/><path fill-rule="evenodd" clip-rule="evenodd" d="M34.847 1.421c.272.14.45.242.533.302.168.141.188.333.063.574-.313.544-.742.675-1.285.392-.607-.302-1.328-.513-2.163-.634-.084-.02-.836-.09-2.257-.212-2.884-.262-6.008.132-9.373 1.179a5.57 5.57 0 01-.815.302c-.314.1-.67.06-1.066-.12.71-.726 1.672-1.25 2.884-1.573C25.36.524 29.508.342 33.813 1.088c.271.04.616.152 1.034.333zm.878 9.245c-.439-.161-1.097-.261-1.975-.302-.878-.06-1.525-.161-1.943-.302 1.149-.585 2.507-.775 4.075-.574.376.06.564.252.564.574a.901.901 0 01-.25.483c-.147.142-.304.182-.47.121zm-3.291 12.782c1.672-.907 2.842-1.45 3.51-1.632.67-.181 1.171-.242 1.505-.181.293.04.47.22.533.543-.063.302-.23.504-.502.604-1.233.222-2.55.685-3.95 1.39-.814.403-2.006 1.108-3.573 2.116-.752.483-1.39.422-1.912-.182-.668-.786-.763-1.41-.282-1.873.71-.685 1.066-1.551 1.066-2.599.02-.604-.042-1.521-.189-2.75 0-.14-.062-.342-.188-.604-.25-.504-.188-.886.188-1.148.397-.282.805-.262 1.223.06.46.263.575.625.345 1.089-.272.523-.356 1.158-.25 1.903.125.886.187 1.55.187 1.994.02.745.23 1.22.627 1.42.418.242.971.192 1.662-.15zM50.49 34.082c.146-.362.407-.594.783-.694.063-.02.168.01.314.09.125.081.188.151.188.212.146.625-.042 1.27-.564 1.933-.23.263-.481.303-.753.121-.04 0-.146-.14-.313-.423l.031-.271a9.63 9.63 0 00.314-.968zM5.537 18.703c.105.202.105.423 0 .666-.062.342-.104.604-.125.785-.063.322-.261.493-.596.514-.292.04-.49-.06-.595-.302-.063-.12-.105-.363-.126-.725.063-.786.366-1.178.91-1.178.25 0 .428.08.532.24zm-1.034 4.955c-.126.403-.199.695-.22.877-.125.342-.198.795-.219 1.36-.063.785-.115 1.228-.157 1.329-.293 2.68.659 5.357 2.853 8.037l.595.634c.46.605.46 1.098 0 1.48-.23.202-.47.212-.72.031-.084-.06-.251-.221-.502-.483-2.257-2.558-3.511-5.278-3.762-8.158.146-.464.251-1.209.314-2.236.041-1.047.146-1.833.313-2.356l.282-.817c.126-.261.334-.372.627-.332.418.101.617.312.596.634z" fill="#95564E"/></svg>