<svg width="57" height="73" fill="none" xmlns="http://www.w3.org/2000/svg"><path fill-rule="evenodd" clip-rule="evenodd" d="M52.336 7.464c0 .614.055 1.987.165 4.12.084 1.68.056 3.067-.083 4.16a93.134 93.134 0 00-.332 22.2c.665 6.64.914 11.84.747 15.6-.055 1.652-.637 3.973-1.743 6.96-.194.506-.54.892-1.038 1.16-.277.132-.747.28-1.41.44-.305.08-.734.092-1.287.04-.857-.027-1.3-.04-1.329-.04.111 1.12.706 2.36 1.785 3.72.47.613.456 1.266-.042 1.959-.36.453-.941.467-1.744.04-.94-.64-1.701-1-2.282-1.08-.304.24-.484.56-.539.96 0 .24.027.586.083 1.04.083.88-.29 1.386-1.12 1.52-.969.106-1.509-.254-1.619-1.081-.055-.347-.221-.76-.499-1.24-.303-.56-.498-.96-.58-1.2-.277-1.067-.706-1.814-1.287-2.24-.608-.453-1.48-.52-2.614-.2-.941.213-1.55-.28-1.826-1.48-1.3 2.213-2.282 4.653-2.946 7.32-.166.56-.263.92-.292 1.08-.165.32-.442.533-.83.64-1.022.4-1.645-.026-1.867-1.28-.193-.854-.345-1.32-.457-1.4-.166-.027-.622.24-1.368.8l-1.37.96c-.553.32-1.037.252-1.452-.2-.554-.507-.596-.975-.125-1.4.332-.32.678-.92 1.038-1.8.387-.934.775-1.627 1.162-2.08-3.486.185-6.35.092-8.59-.282-2.436-.373-3.75-.573-3.943-.6-1.495-.319-2.74-.773-3.735-1.359-1.716-.907-2.49-2.28-2.325-4.12.055-.853-.028-1.96-.25-3.32-.276-1.84-.428-2.946-.456-3.32-.055-.88.055-2.333.332-4.36.25-1.92.304-3.4.165-4.44-.221-2.08 0-5.373.665-9.88.138-1.066.208-2.373.208-3.92-.028-1.733-.028-3.04 0-3.92l-2.034.082c-.968.08-1.687-.015-2.159-.281-.47-.267-.898-.8-1.286-1.6-.719-1.466-1.023-2.96-.913-4.48.11-1.2.055-3.067-.166-5.6-.193-1.867.153-4.067 1.037-6.6.36-1.04 1.024-1.547 1.992-1.52 1.66.134 3.832-.014 6.516-.44 3.347-.48 5.506-.747 6.474-.8 1.494-.026 3.293-.186 5.395-.48 1.19-.186 2.989-.467 5.395-.84 1.716-.267 2.905-.36 3.569-.28 2.075.186 4.413.213 7.013.08 1.33-.054 2.864.013 4.607.2 1.023.053 2.545.213 4.565.48.858.08 1.979.493 3.362 1.24 1.11.536 1.663 1.322 1.663 2.362zm3.9 5.92c-.637 2.934-.815 5.227-.539 6.881.083.666-.262 1-1.037 1-.443 0-.692-.32-.747-.96v-1.84a21.41 21.41 0 01.291-2.68c.222-1.147.388-2.027.498-2.64.083-.64.374-.893.872-.76.606.026.828.36.662 1zm-6.433-5.72c-.995-1.36-2.613-2.12-4.855-2.28-5.173-.32-8.646-.507-10.417-.56-3.9-.027-7.387.24-10.458.8-1.91.347-4.73.64-8.466.88-3.846.32-6.667.627-8.466.92-1.714.293-2.877.747-3.486 1.36-.664.586-1.079 1.693-1.245 3.32-.054.64-.054 1.266 0 1.88.277 1.92.47 4.067.581 6.44.055 1.333.415 2.32 1.08 2.96.608.56 1.687 1 3.236 1.32.194-1.76.36-3.08.498-3.96.194-1.574.125-2.88-.207-3.92-.11-.453-.125-1.173-.042-2.16.166-1.333.153-2.12-.041-2.36-.193-.266-.996-.453-2.407-.56-.083 0-.222-.092-.415-.28 1.135-.96 2.268-1.253 3.403-.88.499.107.845.36 1.037.76.112.32.166.76.166 1.32 0 4.826-.11 8.052-.33 9.68-.25 1.493-.347 3.48-.292 5.96.027 2.986 0 4.973-.083 5.96.36.052.871-.12 1.535-.52a2.206 2.206 0 011.868-.28c-1.991 1.2-3.223 2.76-3.694 4.68-.33 1.386-.29 3.386.125 6 .166-.267.637-1 1.41-2.2.499-.774.927-1.374 1.287-1.8.277-.32.65-.88 1.12-1.68.444-.64.997-1.014 1.66-1.12-1.714 3.307-3.263 5.907-4.647 7.8-.885 1.2-1.314 2.626-1.287 4.28 0 .96.11 2.414.332 4.36.637-.533 1.245-1.227 1.826-2.08.36-.534.844-1.308 1.452-2.32.886-1.36 1.564-2.24 2.034-2.64.442-.427 1.065-.748 1.867-.96-.055.373-.262.786-.622 1.24-.36.48-.609.84-.747 1.08l-4.814 7.28c-.913 1.334-.872 2.614.124 3.841.775-1.04 1.937-2.627 3.486-4.76 1.41-1.894 2.78-3.454 4.108-4.68a3.738 3.738 0 01-.664 2.28c-.609.72-1.038 1.253-1.287 1.6a108.84 108.84 0 00-2.2 2.96c-.857 1.147-1.493 2.186-1.908 3.12-.443.826-.567 1.4-.374 1.72.166.346.734.626 1.703.84.193.08.608.16 1.245.24.525.08.926.173 1.202.28.747.346 1.411.4 1.992.16.47-.187.969-.614 1.494-1.28.942-1.2 2.891-3.374 5.852-6.52.304-.347.553-.56.747-.64.36-.107.747.013 1.162.36-2.02 2.052-3.237 3.306-3.652 3.76-1.799 2.052-2.905 3.519-3.32 4.4 1.964.692 3.473.373 4.523-.96a295.272 295.272 0 002.241-2.84c.58-.854 1.356-1.36 2.324-1.52-.193-.934-.373-1.6-.54-2-.967-2.293-.456-4.427 1.537-6.4.774-.8 1.825-1.44 3.154-1.92.746-.267 1.95-.573 3.61-.92.886-.134 1.98.453 3.28 1.76 1.272 1.28 1.95 2.44 2.033 3.48.083.8.207 1.4.373 1.8.222.56.609 1.014 1.161 1.36.222-.053.581-.334 1.08-.84.443-.453.94-.626 1.494-.52-.941 1.653-1.452 2.627-1.536 2.92-.277 1.093.111 2.093 1.162 3 .249-.186.913-.96 1.99-2.32.86-1.014 1.785-1.666 2.782-1.96-.221.587-.76 1.386-1.618 2.4-.747.907-1.176 1.667-1.287 2.28 1.411.32 2.449-.226 3.113-1.64.442-.986.788-2.373 1.037-4.16.222-2.373.263-5.12.124-8.24-.331-3.626-.553-6.346-.664-8.16-.388-5.84-.526-10.226-.415-13.16.139-2.585.47-6.333.996-11.24.279-2.4-.108-4.268-1.16-5.6zM36.69 1.904c-.442 0-1.148-.426-2.116-1.28h4.69c-1.301.854-2.159 1.28-2.574 1.28zm-7.178-.24c-3.044.64-6.102.987-9.173 1.04-2.988.08-7.441.414-13.363 1-.36.08-.65.04-.871-.12-.25-.132-.346-.359-.291-.68 0-.293.138-.48.415-.56 0-.026.29-.052.872-.08l18.094-1.08c1.576-.16 2.836-.44 3.776-.84 1.052-.507 1.675-.453 1.868.16.166.4.097.692-.208.88-.138.054-.51.147-1.12.28zm12.035 13.96c.387.72.65 1.44.787 2.16.084.107.07.213-.041.32-.083.106-.222.16-.415.16-.553.052-1.08-.32-1.576-1.12-.415-.667-.319-1.214.29-1.64.414-.32.733-.28.955.12zm-9.67 3.16c-.526-.08-.914-.44-1.163-1.08-.137-.747-.11-1.253.084-1.52.331-.319.664-.373.996-.159.331.267.539.64.623 1.12.055.293.083.733.083 1.32a9.32 9.32 0 00-.624.32zm2.822 8.56c-.084.56-.47.84-1.162.84-4.841.134-7.912.2-9.213.2-3.458 0-6.544-.146-9.254-.44-.332 0-.54-.28-.623-.84 2.075-.453 3.901-.586 5.478-.4 4.4.534 8.592.48 12.575-.16l1.079-.119c.829.08 1.202.386 1.12.92zm9.461.68c.112.507-.137.8-.746.88-.055 0-.622.053-1.702.16l-1.08-.12c-1.105-.052-1.632-.4-1.575-1.04.055-.426.276-.64.664-.64.221 0 .595.067 1.12.2.526.053 1.342.08 2.449.08.525.08.816.24.87.48zm-4.273 6.68c.83.08 1.259.12 1.286.12.443.107.637.4.581.88-.027.427-.304.734-.83.92a1.867 1.867 0 01-1.203 0c-1.522-.533-3.279-.707-5.272-.52-2.102.267-4.786.453-8.05.56l-8.05.4c-1.246.08-2.16.08-2.74 0a.963.963 0 01-.622-.24c-.25-.186-.346-.386-.292-.6.028-.373.374-.56 1.038-.56h7.22c1.993.08 4.483-.013 7.47-.28 4.677-.374 7.195-.587 7.554-.64.415 0 1.052-.013 1.91-.04zm14.11-8.12c.054-.24.193-.386.415-.44.47-.133.844.174 1.12.92l.166 1c.083.933-.166 1.427-.747 1.48-.47.027-.746-.373-.83-1.2l-.166-1c0-.347.014-.6.042-.76zM43.04 43.304c.027.48-.25.787-.83.92-.581-.08-.885-.307-.914-.68-.11-.534.125-.84.706-.92.582 0 .928.227 1.038.68zm-10.5.28c-1.245-.266-2.6-.266-4.066 0-.914.16-2.033.241-3.362.241-1.494-.08-2.614-.12-3.362-.12-.498 0-.816-.014-.953-.04-.332-.133-.485-.386-.458-.76.029-.32.223-.52.581-.6.194-.053.527-.08.996-.08h3.61v.2l9.422-.64c.498-.08.858-.08 1.08 0 .58.08.87.386.87.92.056.48-.193.8-.745.96-1.137.24-2.34.213-3.613-.08zm.996 6.52l-3.112 4.16c-.388.507-.581 1-.581 1.48 0 .667.291 1.081.871 1.24.36.108.72-.119 1.08-.68l3.029-4.52c.415-.613.706-1 .871-1.159.415-.427.996-.667 1.744-.72l-4.565 6.92c-.415.506-.429.88-.041 1.12.415.293.802.213 1.16-.24 2.297-2.853 3.694-4.64 4.192-5.36.444-.587.54-1.2.292-1.84-.248-.64-.734-1.108-1.453-1.4-.499-.187-1.121-.187-1.867 0-.72.213-1.26.547-1.62 1zm-4.69 4c.638-.453 1.26-1.147 1.868-2.08.72-1.12 1.231-1.827 1.537-2.12-1.273.427-2.048.814-2.324 1.16-.333.374-.692 1.388-1.08 3.04zm12.783 6.4l-.166.92c-.166.293-.443.386-.83.28-.388-.107-.553-.333-.498-.68 0-.186.11-.507.331-.96l.747-1.68c.442-.933.222-1.68-.664-2.24-1.633.933-2.24 2.052-1.826 3.36l2.407 6.96c.138-.854.595-1.468 1.369-1.84.084 0 .983-.228 2.697-.681-.857-.4-1.397-1.187-1.618-2.36-.25-1.147-.664-1.88-1.245-2.2-.385.241-.621.614-.704 1.121zm-4.232-.16c-.139-.533-.401-.892-.789-1.08-.387-.133-.691-.04-.914.28-.192.508-.345.827-.456.96-.775.827-1.245 1.52-1.411 2.08.304-.186.734-.24 1.287-.159.664.053 1.107.04 1.328-.04.776-.24 1.12-.467 1.038-.68a32.428 32.428 0 00-.083-1.36zm-7.97-1c-.303.081-.566.4-.788.96-1.106 2.507-1.895 4.827-2.365 6.96.803-.747 1.494-.933 2.075-.56.305.24.761.614 1.37 1.12.414-.667.884-1.933 1.41-3.8.47-1.627 1.037-2.814 1.702-3.56-.277-.267-.65-.453-1.121-.56l-1.038-.36c-.552-.213-.967-.28-1.244-.2zm-8.922-44c.056.16.084.6.084 1.32.055.507.07.84.042 1-.084.48-.332.627-.747.44-.443-.16-.733-.626-.872-1.4-.166-.8-.096-1.32.208-1.56.636-.533 1.064-.466 1.285.2zM2.203 34.824c.58.133.775.573.58 1.32-.248 1.28-.373 3.026-.373 5.24-.027 2.586-.083 4.333-.166 5.24l-.166 1.56c-.165.773-.538 1.08-1.12.92-.582-.161-.789-.587-.623-1.28.305-1.148.457-2.615.457-4.4.027-2.4.07-3.881.124-4.441l.332-3.16c.083-.453.138-.72.166-.8.166-.212.43-.279.789-.199zm23.406-17.52c-.055-.107-.097-.48-.125-1.12-.166-.773.125-1.119.872-1.04.608.053.885.481.83 1.281 0 .586-.027.96-.083 1.12-.11.346-.36.493-.747.44-.387-.028-.637-.254-.747-.68zm-6.806 38.2c-.969 1.174-1.66 2.053-2.075 2.64-.858 1.067-1.384 2.067-1.577 3-.193.587-.525.814-.995.681-.554-.16-.693-.614-.415-1.36.193-.454.511-1 .953-1.64l4.358-5.52c.277-.4.622-.426 1.037-.08-.027.373-.18.76-.456 1.16-.388.48-.664.853-.83 1.12zm-16.808-.32l.374 3.441c.11 1.147.554 2.186 1.328 3.12.442.533.499.933.166 1.2-.442.452-.94.507-1.494.16-.941-.587-1.467-1.387-1.577-2.4 0-2.267-.138-3.96-.415-5.08-.083-.348-.027-.628.166-.842.193-.266.47-.4.83-.4.36.055.568.321.622.801zm24.36 6.64c.194-.507.112-.76-.248-.76-.194 0-.43.227-.706.68-.138.267-.069.494.208.681.332 0 .582-.2.747-.6z" fill="#000"/><path fill-rule="evenodd" clip-rule="evenodd" d="M56.236 13.384c-.637 2.934-.815 5.227-.539 6.881.083.666-.262 1-1.037 1-.443 0-.692-.32-.747-.96v-1.84a21.41 21.41 0 01.291-2.68c.222-1.147.388-2.027.498-2.64.083-.64.374-.893.872-.76.606.026.828.36.662 1zM36.689 1.904c-.442 0-1.148-.426-2.116-1.28h4.69c-1.301.854-2.159 1.28-2.574 1.28zm-7.178-.24c-3.044.64-6.102.987-9.173 1.04-2.988.08-7.441.414-13.363 1-.36.08-.65.04-.871-.12-.25-.132-.346-.359-.291-.68 0-.293.138-.48.415-.56 0-.026.29-.052.872-.08l18.094-1.08c1.576-.16 2.836-.44 3.776-.84 1.052-.507 1.675-.453 1.868.16.166.4.097.692-.208.88-.138.054-.51.147-1.12.28zm14.648 26.36c.112.507-.137.8-.746.88-.055 0-.622.053-1.702.16l-1.08-.12c-1.105-.052-1.632-.4-1.575-1.04.055-.426.276-.64.664-.64.221 0 .595.067 1.12.2.526.053 1.342.08 2.449.08.525.08.816.24.87.48zm9.837-1.44c.054-.24.193-.386.415-.44.47-.133.844.174 1.12.92l.166 1c.083.933-.166 1.427-.747 1.48-.47.027-.746-.373-.83-1.2l-.166-1c0-.347.014-.6.042-.76zm-51.793 8.24c.58.133.775.573.58 1.32-.248 1.28-.373 3.026-.373 5.24-.027 2.586-.083 4.333-.166 5.24l-.166 1.56c-.165.773-.538 1.08-1.12.92-.582-.161-.789-.587-.623-1.28.305-1.148.457-2.615.457-4.4.027-2.4.07-3.881.124-4.441l.332-3.16c.083-.453.138-.72.166-.8.166-.212.43-.279.789-.199zm-.208 20.36l.374 3.441c.11 1.147.554 2.186 1.328 3.12.442.533.499.933.166 1.2-.442.452-.94.507-1.494.16-.941-.587-1.467-1.387-1.577-2.4 0-2.267-.138-3.96-.415-5.08-.083-.348-.027-.628.166-.842.193-.266.47-.4.83-.4.36.055.568.321.622.801z" fill="#95564E"/></svg>